<?xml version="1.0" encoding="UTF-8" standalone="no"?>
<svg
   version="1.1"
   width="24"
   height="24"
   viewBox="0 0 24 24"
   id="svg1087"
   sodipodi:docname="podcast.svg"
   inkscape:version="1.1.1 (3bf5ae0d25, 2021-09-20)"
   xmlns:inkscape="http://www.inkscape.org/namespaces/inkscape"
   xmlns:sodipodi="http://sodipodi.sourceforge.net/DTD/sodipodi-0.dtd"
   xmlns="http://www.w3.org/2000/svg"
   xmlns:svg="http://www.w3.org/2000/svg">
  <defs
     id="defs1091" />
  <sodipodi:namedview
     id="namedview1089"
     pagecolor="#ffffff"
     bordercolor="#666666"
     borderopacity="1.0"
     inkscape:pageshadow="2"
     inkscape:pageopacity="0.0"
     inkscape:pagecheckerboard="0"
     showgrid="false"
     inkscape:zoom="16.243955"
     inkscape:cx="26.502166"
     inkscape:cy="24.686106"
     inkscape:window-width="1920"
     inkscape:window-height="1011"
     inkscape:window-x="0"
     inkscape:window-y="32"
     inkscape:window-maximized="1"
     inkscape:current-layer="svg1087" />
  <path
     d="M17,18.25V21.5H7V18.25C7,16.87 9.24,15.75 12,15.75C14.76,15.75 17,16.87 17,18.25M12,5.5A6.5,6.5 0 0,1 18.5,12C18.5,13.25 18.15,14.42 17.54,15.41L16,14.04C16.32,13.43 16.5,12.73 16.5,12C16.5,9.5 14.5,7.5 12,7.5C9.5,7.5 7.5,9.5 7.5,12C7.5,12.73 7.68,13.43 8,14.04L6.46,15.41C5.85,14.42 5.5,13.25 5.5,12A6.5,6.5 0 0,1 12,5.5M12,1.5A10.5,10.5 0 0,1 22.5,12C22.5,14.28 21.77,16.39 20.54,18.11L19.04,16.76C19.96,15.4 20.5,13.76 20.5,12A8.5,8.5 0 0,0 12,3.5A8.5,8.5 0 0,0 3.5,12C3.5,13.76 4.04,15.4 4.96,16.76L3.46,18.11C2.23,16.39 1.5,14.28 1.5,12A10.5,10.5 0 0,1 12,1.5M12,9.5A2.5,2.5 0 0,1 14.5,12A2.5,2.5 0 0,1 12,14.5A2.5,2.5 0 0,1 9.5,12A2.5,2.5 0 0,1 12,9.5Z"
     id="path1085"
     style="fill:#ff73a1;fill-opacity:1" />
</svg>
